<?xml version="1.0" standalone="no"?>
<!DOCTYPE svg PUBLIC "-//W3C//DTD SVG 20010904//EN"
 "http://www.w3.org/TR/2001/REC-SVG-20010904/DTD/svg10.dtd">
<svg version="1.0" xmlns="http://www.w3.org/2000/svg"
 width="700.000000pt" height="700.000000pt" viewBox="0 0 700.000000 700.000000"
 preserveAspectRatio="xMidYMid meet">
<metadata>
Created by potrace 1.11, written by Peter Selinger 2001-2013
</metadata>
<g transform="translate(0.000000,700.000000) scale(0.100000,-0.100000)"
fill="#000000" stroke="none">
<path d="M3643 6915 c-66 -20 -127 -60 -176 -115 -61 -68 -89 -143 -89 -240 0
-104 28 -174 101 -253 l57 -62 -26 -72 c-14 -39 -28 -75 -32 -78 -4 -4 -65
-11 -135 -16 -70 -5 -184 -18 -252 -30 -68 -11 -127 -17 -131 -12 -5 4 -56 77
-115 161 l-106 153 36 48 c46 64 65 120 65 195 0 84 -23 146 -76 205 -77 86
-198 127 -298 102 -25 -6 -148 -50 -273 -98 -226 -86 -228 -87 -289 -147 -70
-71 -94 -126 -94 -221 0 -86 23 -146 81 -209 64 -71 129 -99 229 -102 l74 -2
23 -148 c12 -82 24 -168 28 -191 l6 -41 -88 -57 c-125 -82 -224 -159 -351
-274 -61 -56 -114 -101 -119 -101 -4 0 -56 21 -115 47 l-108 47 0 55 c0 202
-194 345 -392 287 -75 -21 -123 -67 -251 -235 -122 -162 -143 -211 -134 -317
12 -150 128 -262 283 -272 59 -4 80 0 134 21 75 31 66 35 159 -77 l59 -71 -31
-60 c-112 -220 -215 -529 -241 -721 l-7 -51 -182 -42 c-101 -23 -190 -43 -199
-44 -9 -1 -30 19 -49 48 -153 226 -470 197 -587 -53 l-27 -57 0 -275 0 -275
26 -55 c37 -79 81 -125 152 -160 88 -42 157 -48 248 -20 63 19 81 30 134 83
43 44 67 77 80 115 22 61 -6 60 240 3 l160 -37 13 -64 c24 -122 31 -140 65
-160 47 -29 93 -26 128 9 35 36 37 63 9 213 -20 113 -35 146 -76 173 -29 19
-560 145 -615 146 -74 2 -100 -30 -110 -139 -7 -87 -28 -121 -86 -141 -49 -17
-83 -10 -126 28 l-32 29 0 249 c0 227 2 250 19 276 53 78 170 74 210 -7 8 -17
18 -48 21 -68 3 -21 17 -50 29 -65 36 -41 83 -37 391 36 338 79 352 88 370
231 11 88 61 286 100 400 20 58 72 178 116 268 81 166 90 201 66 254 -20 43
-285 346 -318 363 -45 24 -84 11 -139 -46 -41 -43 -53 -49 -88 -49 -33 0 -45
6 -66 31 -47 56 -39 81 78 237 57 76 111 142 121 145 30 12 80 7 102 -11 36
-27 44 -71 23 -129 -20 -58 -17 -93 14 -126 18 -19 350 -169 424 -192 57 -17
90 2 221 128 136 131 279 245 415 327 46 29 94 63 106 75 41 43 40 75 -6 382
-24 158 -44 294 -44 301 0 8 -13 27 -29 43 -36 36 -82 38 -159 9 -65 -25 -89
-25 -129 0 -53 32 -61 117 -16 162 21 20 452 188 483 188 29 0 77 -27 90 -49
5 -11 10 -38 10 -61 0 -45 -24 -75 -91 -115 -41 -25 -63 -66 -54 -104 8 -36
336 -510 371 -535 35 -26 98 -31 169 -13 93 24 257 46 400 53 140 7 185 20
213 62 25 38 132 340 132 372 0 37 -41 86 -85 100 -42 14 -81 58 -96 110 -22
74 25 167 98 191 41 13 191 6 258 -12 83 -23 138 -115 116 -196 -16 -57 -46
-91 -106 -118 -92 -40 -95 -54 -70 -283 27 -243 30 -247 232 -302 174 -48 292
-94 453 -176 144 -73 173 -81 221 -61 58 24 492 382 507 418 21 50 7 84 -58
141 -72 63 -87 94 -71 147 6 22 22 46 36 55 25 16 80 21 110 10 37 -14 381
-297 394 -323 30 -62 -12 -136 -82 -148 -28 -4 -46 1 -83 22 -49 29 -98 34
-133 16 -12 -7 -34 -37 -50 -69 -42 -85 -228 -494 -235 -519 -12 -40 12 -96
63 -149 56 -58 96 -72 141 -49 62 32 76 89 38 156 l-21 38 83 179 82 179 42
-9 c89 -21 210 17 281 87 58 59 89 135 89 222 0 62 -4 80 -34 140 -34 65 -44
75 -245 236 -244 194 -277 211 -395 205 -145 -9 -248 -93 -285 -236 -24 -90
-6 -185 51 -259 l26 -34 -27 -21 c-15 -12 -84 -67 -154 -124 l-126 -102 -40
23 c-107 63 -397 176 -551 214 l-40 11 -11 97 c-9 87 -9 99 6 107 36 19 118
114 140 161 84 179 7 396 -172 486 -99 50 -329 74 -424 44z"/>
<path d="M3639 5371 c-41 -41 -41 -98 0 -143 l29 -33 107 0 107 0 29 33 c43
48 37 112 -15 154 -17 14 -42 18 -124 18 -101 0 -104 -1 -133 -29z"/>
<path d="M2633 5195 c-184 -47 -371 -169 -490 -320 -123 -156 -184 -320 -184
-501 -1 -187 49 -312 176 -440 64 -65 97 -89 165 -122 206 -100 465 -94 682
14 76 38 107 99 78 154 -8 14 -4 21 16 35 14 9 52 43 85 76 50 50 62 58 79 49
27 -14 66 -12 99 5 36 18 101 147 132 260 26 94 31 248 10 335 -54 225 -229
402 -457 460 -111 29 -269 27 -391 -5z"/>
<path d="M6159 5144 c-61 -18 -136 -71 -176 -122 -37 -49 -73 -140 -73 -186
l0 -33 -82 -11 c-46 -7 -88 -12 -94 -12 -6 0 -29 30 -50 66 -54 92 -78 114
-126 114 -22 0 -48 -5 -59 -10 -23 -13 -49 -61 -49 -91 0 -27 102 -212 139
-252 44 -48 75 -49 291 -18 191 29 195 30 223 61 27 31 28 33 21 115 -6 75 -4
87 15 118 54 88 201 87 254 -2 34 -59 99 -247 100 -291 1 -91 -57 -150 -148
-150 -56 0 -82 14 -136 73 -23 26 -45 40 -70 43 -33 6 -49 -3 -203 -107 -132
-89 -172 -122 -187 -151 -24 -48 -24 -56 6 -180 38 -159 55 -295 62 -503 6
-201 13 -231 56 -260 13 -8 142 -67 288 -132 298 -131 323 -137 370 -85 19 21
32 52 40 92 14 74 47 117 93 126 62 11 126 -40 126 -101 0 -52 -89 -477 -105
-501 -8 -13 -32 -28 -54 -35 -32 -9 -44 -9 -73 5 -47 22 -64 57 -61 123 3 63
-14 102 -52 123 -39 21 -614 -3 -665 -28 -46 -22 -69 -60 -110 -173 -18 -52
-69 -163 -112 -247 -82 -160 -89 -191 -62 -244 22 -42 279 -344 299 -352 35
-13 82 -5 115 19 57 42 102 51 154 31 88 -34 125 -116 88 -198 -27 -62 -109
-158 -148 -174 -78 -33 -161 -5 -197 66 -14 29 -16 49 -11 111 9 105 4 109
-235 214 -198 87 -246 99 -294 74 -12 -7 -76 -64 -142 -128 -130 -127 -227
-204 -383 -305 -108 -70 -132 -100 -132 -160 0 -50 88 -575 101 -609 13 -31
55 -57 93 -57 14 0 48 9 76 20 72 28 121 26 153 -6 46 -45 43 -122 -5 -161 -7
-6 -110 -50 -228 -97 -243 -97 -275 -103 -321 -57 -56 56 -34 134 51 182 46
26 75 78 65 117 -7 30 -328 484 -368 520 -37 35 -87 37 -227 9 -209 -43 -302
-50 -539 -44 -119 4 -254 13 -301 21 -114 21 -168 20 -206 -3 -41 -25 -384
-562 -384 -602 0 -48 22 -80 71 -104 56 -29 96 -74 104 -119 7 -37 -17 -170
-35 -191 -23 -27 -77 -15 -295 64 -233 85 -266 105 -287 172 -20 69 10 142 72
174 34 17 63 19 152 10 65 -8 68 -7 96 21 34 34 30 17 73 401 l32 291 -22 44
c-18 39 -34 52 -124 103 -191 108 -335 217 -518 392 -144 137 -121 137 -468
-4 -295 -121 -308 -129 -296 -208 19 -132 19 -143 -13 -174 -34 -35 -69 -46
-117 -37 -39 8 -71 41 -160 171 -53 78 -60 93 -60 137 0 44 4 53 37 84 59 54
113 47 191 -22 38 -35 67 -41 110 -25 26 10 379 403 402 448 8 16 15 42 15 59
0 43 -122 297 -156 323 -39 30 -87 27 -126 -8 -49 -43 -45 -90 15 -209 l47
-93 -122 -138 -122 -138 -45 21 c-36 16 -65 21 -131 21 -73 -1 -93 -5 -143
-30 -144 -72 -217 -241 -169 -392 21 -67 172 -295 226 -340 97 -82 247 -103
357 -52 115 54 181 151 187 276 l4 72 173 70 c96 39 177 71 180 71 4 0 52 -43
107 -95 117 -111 255 -217 388 -299 52 -32 104 -64 116 -71 l20 -13 -22 -199
c-13 -109 -23 -208 -23 -220 -1 -20 -6 -23 -39 -23 -173 0 -342 -173 -342
-350 0 -106 64 -233 148 -294 70 -51 495 -207 584 -213 197 -16 315 133 312
392 -1 89 -29 164 -87 230 l-44 50 114 180 c63 99 118 183 121 187 4 4 50 0
102 -10 73 -12 157 -16 360 -16 230 0 282 3 395 22 72 12 144 27 162 31 l32 9
98 -136 c53 -76 105 -149 116 -164 l19 -26 -36 -48 c-121 -158 -67 -379 116
-476 35 -18 59 -23 128 -23 83 0 89 2 295 84 267 107 292 119 344 176 60 66
84 124 85 211 0 60 -4 80 -32 137 -58 116 -157 177 -291 177 l-68 0 -27 173
c-15 94 -29 179 -32 188 -3 10 26 36 93 82 124 83 212 154 335 268 l97 89 112
-49 113 -49 15 -78 c19 -93 52 -154 116 -213 119 -109 298 -120 440 -26 55 37
173 183 200 249 99 238 -74 498 -330 498 -39 0 -90 -8 -114 -16 l-44 -16 -31
37 c-17 21 -52 62 -77 92 l-46 55 63 128 c34 70 75 162 90 203 l28 74 51 5
c27 3 119 8 203 12 124 5 152 3 152 -8 0 -25 47 -114 79 -151 18 -20 60 -50
93 -67 52 -26 72 -30 138 -30 66 0 86 4 138 30 125 63 150 113 214 434 56 280
57 329 14 414 -56 111 -161 174 -287 174 -112 0 -203 -52 -261 -147 -18 -30
-37 -54 -43 -54 -5 0 -84 32 -175 72 l-165 73 -12 185 c-11 181 -30 323 -58
447 -8 35 -15 65 -15 67 0 3 34 27 76 56 l76 51 76 -39 c72 -36 80 -38 171
-38 85 0 103 3 153 28 74 36 150 119 178 195 18 48 21 72 17 147 -4 78 -11
108 -56 226 -31 80 -67 155 -89 185 -91 120 -251 172 -393 128z"/>
<path d="M4418 5131 c-119 -38 -216 -122 -266 -229 -22 -47 -27 -71 -27 -137
0 -98 29 -168 101 -246 89 -94 198 -139 339 -139 141 0 250 45 339 139 72 78
101 148 101 246 0 66 -5 90 -27 137 -31 68 -105 149 -166 185 -107 63 -275 82
-394 44z"/>
<path d="M4061 3897 c-68 -24 -95 -100 -54 -155 28 -38 85 -55 158 -48 48 5
65 12 89 35 38 38 40 100 6 136 -40 42 -129 57 -199 32z"/>
<path d="M1884 3596 c-42 -19 -64 -52 -64 -96 0 -69 55 -110 151 -110 67 0
113 23 134 66 21 44 13 83 -25 119 -24 23 -39 28 -97 32 -45 2 -78 -1 -99 -11z"/>
<path d="M4671 3544 c-63 -23 -110 -54 -159 -108 -71 -77 -87 -123 -87 -246 0
-101 1 -108 34 -168 124 -228 427 -268 596 -80 108 120 129 265 62 412 -31 67
-103 138 -175 172 -72 35 -201 43 -271 18z m183 -208 c39 -16 72 -56 87 -105
23 -77 -30 -168 -111 -192 -56 -17 -106 -4 -153 40 -38 36 -41 43 -45 102 -3
55 0 69 20 99 43 63 128 87 202 56z"/>
<path d="M3200 3452 c-83 -28 -119 -49 -183 -110 -109 -104 -152 -214 -145
-371 3 -86 8 -104 41 -172 66 -138 189 -234 339 -265 323 -68 622 230 554 554
-31 150 -124 270 -261 338 -71 35 -83 38 -183 41 -84 2 -119 -1 -162 -15z"/>
<path d="M2107 2880 c-107 -27 -210 -111 -255 -208 -24 -50 -27 -70 -27 -157
0 -88 3 -107 27 -157 34 -74 107 -146 183 -184 54 -26 70 -29 155 -29 82 0
103 4 152 27 76 35 138 95 179 170 33 60 34 68 34 168 0 93 -3 112 -27 162
-56 119 -182 205 -315 213 -37 2 -85 0 -106 -5z"/>
<path d="M4449 2411 c-41 -41 -41 -98 0 -143 l29 -33 112 0 112 0 29 33 c41
45 41 102 0 143 -29 29 -31 29 -141 29 -110 0 -112 0 -141 -29z"/>
<path d="M3717 2250 c-168 -43 -293 -220 -273 -390 9 -74 54 -165 107 -218
208 -206 548 -100 610 190 32 149 -53 318 -195 388 -70 35 -178 47 -249 30z
m163 -222 c55 -38 75 -73 75 -133 0 -66 -23 -101 -88 -134 -55 -27 -95 -24
-148 12 -44 29 -74 101 -65 150 19 102 145 160 226 105z"/>
<path d="M2824 2091 c-37 -22 -59 -70 -50 -107 4 -15 20 -39 36 -55 27 -27 33
-29 114 -29 74 0 88 3 111 23 53 46 49 133 -8 167 -44 27 -159 28 -203 1z"/>
</g>
</svg>
